# xmcd
#
# Track frame offsets:
#	150
#	23779
#	69303
#	90457
#	119331
#	150685
#	161329
#	185399
#	214651
#	251257
#	274769
#
# Disc length: 3969 seconds
#
# Revision: 1
# Processed by: cddbd v1.5.2PL0 Copyright (c) Steve Scherf et al.
# Submitted via: audiograbber 1.83.01
#
DISCID=860f7f0b
DTITLE=Various Artist - Ten Top Of Piano
DYEAR=1900
DGENRE=Classical
TTITLE0=Chopin - Polonaise "Military" Op.40-1 No.3
TTITLE1=Beethoven - Piano Concerto No.51N E flat major Op.73 "Emperor" rondo Al
TTITLE1=legro
TTITLE2=Liszt - Liebesfraum No.3 S.541-3
TTITLE3=Mozart - Piano Concerto No.21 elvira madigan:Andante
TTITLE4=Tchaikovsky - Piano Concerto No.1 in B flat minor Op.23 Allegro con fuo
TTITLE4=co
TTITLE5=Brahms - Hungarian Dance No.5
TTITLE6=Beethoven - Piano Sonata No.14 in C sharp minor "moonlight" Adagio Sost
TTITLE6=enuto
TTITLE7=Chopin - Polonaise "Hero" Op.53.No.6
TTITLE8=Mozart - Piano Sonata K.310 Andante Cantabile
TTITLE9=Saint-Saens - Piano Concerto No.2 Op.22:Presto
TTITLE10=Rachmaninov - Rhapsody on a theme of Paganini
EXTD=
EXTT0=
EXTT1=
EXTT2=
EXTT3=
EXTT4=
EXTT5=
EXTT6=
EXTT7=
EXTT8=
EXTT9=
EXTT10=
PLAYORDER=
